<svg width="16" height="17" viewBox="0 0 16 17" fill="none" xmlns="http://www.w3.org/2000/svg">
<path d="M6.10203 4.10562C6.94646 2.59079 7.36868 1.83337 7.99992 1.83337C8.63116 1.83337 9.05338 2.59079 9.89781 4.10562L10.1163 4.49753C10.3562 4.928 10.4762 5.14323 10.6633 5.28525C10.8504 5.42726 11.0834 5.47997 11.5493 5.58541L11.9736 5.68139C13.6133 6.05241 14.4332 6.23792 14.6283 6.86519C14.8234 7.49247 14.2644 8.14609 13.1465 9.45332L12.8573 9.79152C12.5396 10.163 12.3808 10.3487 12.3093 10.5785C12.2379 10.8083 12.2619 11.0561 12.3099 11.5517L12.3537 12.003C12.5227 13.7471 12.6072 14.6192 12.0965 15.0069C11.5858 15.3945 10.8181 15.0411 9.2828 14.3342L8.8856 14.1513C8.4493 13.9504 8.23115 13.8499 7.99992 13.8499C7.76868 13.8499 7.55054 13.9504 7.11424 14.1513L6.71703 14.3342C5.1817 15.0411 4.41404 15.3945 3.90335 15.0069C3.39267 14.6192 3.47717 13.7471 3.64618 12.003L3.68991 11.5517C3.73794 11.0561 3.76195 10.8083 3.69049 10.5785C3.61904 10.3487 3.4602 10.163 3.14253 9.79152L2.85332 9.45332C1.73542 8.14609 1.17647 7.49247 1.37153 6.86519C1.5666 6.23792 2.38649 6.05241 4.02628 5.68139L4.45051 5.58541C4.91649 5.47997 5.14947 5.42726 5.33655 5.28525C5.52362 5.14323 5.6436 4.928 5.88356 4.49753L6.10203 4.10562Z" fill="#FDF41A" stroke="#FDF41A" stroke-width="1.5"/>
</svg>
